<svg data-v-fde0c5aa="" xmlns="http://www.w3.org/2000/svg" viewBox="0 0 300 300" class="font"><!----><defs data-v-fde0c5aa=""><!----></defs><rect data-v-fde0c5aa="" fill="transparent" x="0" y="0" width="300px" height="300px" class="logo-background-square"></rect><defs data-v-fde0c5aa=""><linearGradient data-v-fde0c5aa="" gradientTransform="rotate(25)" id="131e2a07-4208-4254-a322-569ee11274df" x1="0%" y1="0%" x2="100%" y2="0%"><stop data-v-fde0c5aa="" offset="0%" stop-color="#E98E0D" stop-opacity="1"></stop><stop data-v-fde0c5aa="" offset="100%" stop-color="#1536F1" stop-opacity="1"></stop></linearGradient></defs><g data-v-fde0c5aa="" id="2dcdc4e4-4a24-4a36-bf41-ea57bbe4b767" fill="url(#131e2a07-4208-4254-a322-569ee11274df)" transform="matrix(11.689692006769972,0,0,11.689692006769972,33.453772448338434,52.97555690121719)"><path d="M4.68 13.90L0.56 13.90L0.56 13.61L1.85 13.40L1.85 3.21L0.56 3.01L0.56 2.70L4.68 2.70L4.68 3.01L3.39 3.21L3.39 8.25L7.94 3.60L6.41 3.01L6.41 2.70L9.65 2.70L9.65 3.01L8.50 3.60L5.32 6.79L9.80 13.40L10.75 13.61L10.75 13.90L6.62 13.90L6.62 13.61L7.90 13.41L4.23 7.88L3.39 8.74L3.39 13.40L4.68 13.61L4.68 13.90ZM19.04 13.90L10.79 13.90L10.79 13.57L17.35 3.05L13.01 3.05L11.56 5.85L11.20 5.85L11.54 2.70L19.24 2.70L19.24 3.05L12.67 13.57L17.57 13.57L19.01 10.56L19.38 10.56L19.04 13.90Z"></path></g><!----><!----></svg>